<?xml version="1.0" encoding="UTF-8"?><svg id="a" xmlns="http://www.w3.org/2000/svg" viewBox="0 0 700.44828 699.89655"><defs><style>.b{fill:#fff;}</style></defs><path class="b" d="M353.95162,292.2714l6.22383,26.77221c2.50393,10.77079,11.61251,19.18445,23.27293,21.49734l28.98348,5.74899c4.25752,.8445,4.25752,6.45577,0,7.30026l-26.47403,5.25123c-12.9049,2.55974-22.53327,12.53865-23.80706,24.67382l-8.12794,77.43357c-.47208,4.4974-7.57359,4.4974-8.04567,0l-8.12794-77.43357c-1.27379-12.13517-10.90215-22.11408-23.80706-24.67382l-26.47403-5.25123c-4.25752-.8445-4.25752-6.45577,0-7.30026l28.98348-5.74899c11.66041-2.31289,20.769-10.72655,23.27293-21.49734l6.22383-26.77221c.91425-3.93269,6.98898-3.93269,7.90323,0Z"/><path class="b" d="M639.65363,261.88327c-.16086-.03461-.3183-.07733-.47894-.11215-19.1496,23.16208-47.02612,38.61621-78.36954,41.64389l-118.37814,11.48224c-32.89026,3.19025-60.51407-24.4342-57.32318-57.32425l11.48117-118.34311c3.04861-31.3573,18.50403-59.22165,41.65115-78.3721-.03717-.17154-.08267-.33987-.11963-.51163L425.15793,0h-150.31607l-12.95859,60.34616c-.03738,.17368-.08353,.34393-.12112,.51761,23.15161,19.15024,38.60468,47.01181,41.65286,78.36612l11.48117,118.34311c3.19089,32.89005-24.43292,60.5145-57.32318,57.32425l-118.37793-11.48224c-31.34363-3.02768-59.22015-18.48181-78.36975-41.64389-.16064,.03482-.3183,.07755-.47916,.11215L0,274.84186v150.31607l60.34616,12.95859c.16962,.03632,.3356,.08139,.505,.11813,19.14874-23.14563,47.01373-38.58844,78.3439-41.61462l118.3775-11.48267c32.89047-3.19046,60.5145,24.4342,57.32361,57.32446l-11.48117,118.34311c-3.04797,31.33017-18.4989,59.19516-41.64774,78.35245,.0361,.16641,.08032,.32962,.116,.49625l12.95859,60.34637h150.31607l12.95859-60.34637c.03525-.16449,.07904-.32578,.11472-.49026-23.14392-19.1575-38.59784-47.02505-41.64624-78.35843l-11.48117-118.34354c-3.19089-32.89005,24.43292-60.5145,57.32318-57.32404l118.37814,11.48267c31.32996,3.02618,59.19473,18.46921,78.34369,41.61462,.1694-.03674,.33539-.08182,.50479-.11813l60.34637-12.95859v-150.31607l-60.34637-12.95859Zm-163.70041,95.35834l-52.94797,10.50235c-25.80994,5.11948-45.06656,25.07742-47.61423,49.34778l-16.25586,154.8671c-.94421,8.99481-15.14716,8.99481-16.09137,0l-16.25586-154.8671c-2.54767-24.27036-21.80429-44.2283-47.61423-49.34778l-52.94797-10.50235c-8.51501-1.68912-8.51501-12.91159,0-14.60049l57.96704-11.49805c23.3208-4.62579,41.53793-21.45309,46.5459-42.99463l12.4476-53.54462c1.8284-7.86539,13.978-7.86539,15.8064,0l12.4476,53.54462c5.00797,21.54153,23.2251,38.36884,46.5459,42.99463l57.96704,11.49805c8.51501,1.6889,8.51501,12.91138,0,14.60049Z"/></svg>